<svg width="1842" height="1754" viewBox="0 0 1842 1754" fill="none" xmlns="http://www.w3.org/2000/svg">
<path fill-rule="evenodd" clip-rule="evenodd" d="M932.309 721.413L1124.42 860.992C1131.24 865.943 1134.09 874.719 1131.49 882.729L1058.11 1108.57C1055.5 1116.58 1048.04 1122.01 1039.61 1122.01H802.149C793.726 1122.01 786.261 1116.58 783.658 1108.57L710.277 882.729C707.674 874.719 710.526 865.943 717.34 860.992L909.454 721.413C916.268 716.463 925.495 716.463 932.309 721.413ZM908.638 720.29C915.939 714.985 925.825 714.985 933.126 720.29L1125.24 859.869C1132.54 865.173 1135.6 874.576 1132.81 883.158L1059.43 1109C1056.64 1117.58 1048.64 1123.4 1039.61 1123.4H802.149C793.124 1123.4 785.126 1117.58 782.338 1109L708.956 883.158C706.168 874.576 709.223 865.173 716.524 859.869L908.638 720.29ZM1082.16 874.725L932.31 765.852C925.496 760.901 916.269 760.901 909.454 765.852L759.604 874.725C752.79 879.676 749.939 888.451 752.542 896.462L809.779 1072.62C812.382 1080.63 819.847 1086.06 828.27 1086.06H1013.49C1021.92 1086.06 1029.38 1080.63 1031.99 1072.62L1089.22 896.462C1091.83 888.451 1088.97 879.676 1082.16 874.725ZM933.126 764.729C925.825 759.424 915.939 759.424 908.638 764.729L758.788 873.601C751.487 878.906 748.432 888.308 751.221 896.891L808.458 1073.05C811.247 1081.63 819.245 1087.44 828.27 1087.44H1013.49C1022.52 1087.44 1030.52 1081.63 1033.31 1073.05L1090.54 896.891C1093.33 888.308 1090.28 878.906 1082.98 873.601L933.126 764.729ZM1029.33 891.89L932.31 821.401C925.496 816.45 916.269 816.45 909.455 821.401L812.434 891.89C805.62 896.841 802.769 905.617 805.371 913.627L842.43 1027.68C845.033 1035.69 852.498 1041.12 860.92 1041.12H980.844C989.267 1041.12 996.732 1035.69 999.335 1027.68L1036.39 913.627C1039 905.617 1036.14 896.841 1029.33 891.89ZM933.126 820.277C925.825 814.973 915.939 814.973 908.638 820.277L811.618 890.767C804.317 896.071 801.262 905.474 804.051 914.056L841.109 1028.11C843.898 1036.69 851.896 1042.5 860.92 1042.5H980.844C989.869 1042.5 997.867 1036.69 1000.66 1028.11L1037.71 914.056C1040.5 905.474 1037.45 896.071 1030.15 890.767L933.126 820.277Z" fill="url(#paint0_radial)"/>
<path opacity="0.5" fill-rule="evenodd" clip-rule="evenodd" d="M931.901 150.915L1679.71 694.227C1686.28 699.001 1689.03 707.463 1686.52 715.187L1400.88 1594.28C1398.37 1602.01 1391.17 1607.24 1383.05 1607.24H458.713C450.591 1607.24 443.393 1602.01 440.883 1594.28L155.247 715.187C152.737 707.463 155.487 699.001 162.058 694.227L909.862 150.915C916.433 146.141 925.331 146.141 931.901 150.915ZM908.638 149.23C915.939 143.925 925.825 143.925 933.126 149.23L1680.93 692.542C1688.23 697.846 1691.29 707.248 1688.5 715.831L1402.86 1594.93C1400.07 1603.51 1392.07 1609.32 1383.05 1609.32H458.713C449.689 1609.32 441.691 1603.51 438.902 1594.93L153.266 715.831C150.477 707.248 153.532 697.846 160.833 692.542L908.638 149.23ZM1531.96 742.231L931.901 306.261C925.33 301.487 916.432 301.487 909.862 306.261L309.8 742.231C303.229 747.005 300.48 755.467 302.989 763.192L532.193 1468.61C534.702 1476.33 541.901 1481.56 550.023 1481.56H1291.74C1299.86 1481.56 1307.06 1476.33 1309.57 1468.61L1538.77 763.192C1541.28 755.467 1538.53 747.005 1531.96 742.231ZM933.125 304.576C925.824 299.271 915.938 299.271 908.637 304.576L308.576 740.546C301.275 745.85 298.22 755.253 301.008 763.835L530.211 1469.25C533 1477.83 540.998 1483.64 550.023 1483.64H1291.74C1300.76 1483.64 1308.76 1477.83 1311.55 1469.25L1540.75 763.835C1543.54 755.253 1540.49 745.85 1533.19 740.546L933.125 304.576ZM931.901 438.07L1406.61 782.962C1413.18 787.736 1415.93 796.198 1413.42 803.923L1232.09 1361.97C1229.58 1369.7 1222.39 1374.93 1214.26 1374.93H627.498C619.376 1374.93 612.178 1369.7 609.668 1361.97L428.348 803.923C425.838 796.198 428.587 787.736 435.158 782.962L909.862 438.07C916.433 433.296 925.33 433.296 931.901 438.07ZM908.638 436.385C915.938 431.08 925.825 431.08 933.126 436.384L1407.83 781.277C1415.13 786.582 1418.19 795.984 1415.4 804.567L1234.08 1362.61C1231.29 1371.2 1223.29 1377.01 1214.26 1377.01H627.498C618.474 1377.01 610.476 1371.2 607.687 1362.61L426.366 804.567C423.578 795.984 426.633 786.582 433.934 781.277L908.638 436.385ZM931.9 558.581L1292.44 820.528C1299.01 825.302 1301.76 833.764 1299.25 841.488L1161.54 1265.33C1159.03 1273.05 1151.83 1278.28 1143.71 1278.28H698.055C689.933 1278.28 682.735 1273.05 680.225 1265.33L542.512 841.488C540.002 833.764 542.751 825.302 549.322 820.528L909.861 558.581C916.432 553.807 925.329 553.807 931.9 558.581ZM908.637 556.896C915.938 551.591 925.824 551.591 933.125 556.896L1293.66 818.843C1300.96 824.147 1304.02 833.549 1301.23 842.132L1163.52 1265.97C1160.73 1274.55 1152.73 1280.36 1143.71 1280.36H698.055C689.031 1280.36 681.033 1274.55 678.244 1265.97L540.53 842.132C537.742 833.549 540.797 824.147 548.098 818.843L908.637 556.896Z" fill="url(#paint1_radial)"/>
<path opacity="0.5" fill-rule="evenodd" clip-rule="evenodd" d="M931.9 5.66354L1831.95 659.587C1838.52 664.361 1841.27 672.823 1838.76 680.547L1494.97 1738.62C1492.46 1746.34 1485.26 1751.57 1477.14 1751.57H364.62C356.498 1751.57 349.3 1746.34 346.79 1738.62L3.00206 680.547C0.492238 672.823 3.24173 664.361 9.81253 659.587L909.861 5.66355C916.431 0.88958 925.329 0.889573 931.9 5.66354ZM908.636 3.97831C915.937 -1.3261 925.823 -1.32611 933.124 3.9783L1833.17 657.901C1840.47 663.206 1843.53 672.608 1840.74 681.191L1496.95 1739.26C1494.16 1747.84 1486.16 1753.65 1477.14 1753.65H364.62C355.595 1753.65 347.597 1747.84 344.809 1739.26L1.02095 681.191C-1.76774 672.608 1.28724 663.206 8.58813 657.901L908.636 3.97831ZM1655.08 717.054L931.899 191.633C925.328 186.859 916.43 186.859 909.86 191.633L186.679 717.054C180.109 721.828 177.359 730.29 179.869 738.015L456.099 1588.16C458.609 1595.89 465.807 1601.12 473.929 1601.12H1367.83C1375.95 1601.12 1383.15 1595.89 1385.66 1588.16L1661.89 738.015C1664.4 730.29 1661.65 721.828 1655.08 717.054ZM933.123 189.948C925.822 184.644 915.936 184.644 908.635 189.948L185.455 715.369C178.154 720.674 175.099 730.076 177.888 738.659L454.118 1588.81C456.907 1597.39 464.905 1603.2 473.929 1603.2H1367.83C1376.85 1603.2 1384.85 1597.39 1387.64 1588.81L1663.87 738.659C1666.66 730.076 1663.6 720.674 1656.3 715.369L933.123 189.948ZM931.898 349.426L1505.01 765.815C1511.58 770.589 1514.33 779.051 1511.82 786.775L1292.91 1460.51C1290.4 1468.23 1283.2 1473.46 1275.08 1473.46H566.677C558.555 1473.46 551.357 1468.23 548.847 1460.51L329.938 786.776C327.428 779.051 330.178 770.589 336.749 765.815L909.859 349.426C916.43 344.652 925.328 344.652 931.898 349.426ZM908.635 347.741C915.936 342.436 925.822 342.436 933.123 347.74L1506.23 764.13C1513.53 769.434 1516.59 778.836 1513.8 787.419L1294.89 1461.15C1292.1 1469.73 1284.11 1475.54 1275.08 1475.54H566.677C557.653 1475.54 549.655 1469.73 546.866 1461.15L327.957 787.419C325.168 778.836 328.223 769.434 335.524 764.13L908.635 347.741ZM931.898 493.13L1368.34 810.222C1374.91 814.996 1377.66 823.458 1375.15 831.182L1208.44 1344.25C1205.93 1351.97 1198.74 1357.2 1190.61 1357.2H651.144C643.022 1357.2 635.823 1351.97 633.313 1344.25L466.608 831.182C464.098 823.458 466.848 814.996 473.419 810.222L909.859 493.13C916.43 488.356 925.327 488.356 931.898 493.13ZM908.634 491.444C915.935 486.14 925.821 486.14 933.122 491.444L1369.56 808.537C1376.86 813.841 1379.92 823.243 1377.13 831.826L1210.42 1344.89C1207.64 1353.47 1199.64 1359.29 1190.61 1359.29H651.144C642.119 1359.29 634.121 1353.47 631.332 1344.89L464.627 831.826C461.838 823.243 464.893 813.841 472.194 808.537L908.634 491.444Z" fill="url(#paint2_radial)"/>
<path d="M902.923 859.841C913.631 852.061 928.13 852.061 938.838 859.841L990.752 897.559C1001.46 905.338 1005.94 919.128 1001.85 931.716L982.021 992.745C977.931 1005.33 966.201 1013.86 952.965 1013.86H888.796C875.56 1013.86 863.83 1005.33 859.74 992.745L839.91 931.716C835.82 919.128 840.301 905.338 851.009 897.559L902.923 859.841Z" fill="white"/>
<g clip-path="url(#clip0)">
<path d="M919.057 921.984L896.216 906.509H945.303L922.461 921.984C921.432 922.681 920.086 922.681 919.057 921.984Z" fill="#FF721C"/>
<path d="M958.851 944.383V931.018L948.571 937.985C946.891 939.124 945.883 941.028 945.883 943.066V956.431L956.163 949.464C957.843 948.326 958.851 946.421 958.851 944.383Z" fill="#FF721C"/>
<path d="M922.925 961.261L937.526 975.944H904.016L918.617 961.261C919.807 960.064 921.735 960.064 922.925 961.261Z" fill="#FF721C"/>
<path d="M895.633 956.415V943.05C895.633 941.012 894.625 939.108 892.945 937.969L882.691 931.02V944.385C882.691 946.423 883.699 948.327 885.379 949.466L895.633 956.415Z" fill="#FF721C"/>
<path d="M958.851 919.875V906.51L928.945 926.778C926.215 928.628 924.578 931.723 924.578 935.035V948.13C924.578 949.755 925.22 951.313 926.362 952.462L938.286 964.454V962.757H938.282V941.133C938.282 938.591 939.543 936.214 941.648 934.788L956.163 924.956C957.843 923.818 958.851 921.913 958.851 919.875Z" fill="#FF721C"/>
<path d="M916.962 948.132C916.962 949.757 916.32 951.316 915.177 952.465L903.253 964.456V947.442L903.234 947.43V944.942L903.253 944.955V941.136C903.253 938.594 901.993 936.218 899.889 934.792L885.379 924.958C883.699 923.819 882.691 921.915 882.691 919.877V906.512L912.594 926.778C915.325 928.628 916.962 931.723 916.962 935.035V948.132Z" fill="#FF721C"/>
</g>
<path d="M908.867 663.215C916.03 658.011 925.729 658.011 932.891 663.215L1179.16 842.137C1186.32 847.341 1189.32 856.565 1186.58 864.985L1092.51 1154.49C1089.78 1162.91 1081.93 1168.61 1073.08 1168.61H768.68C759.826 1168.61 751.98 1162.91 749.244 1154.49L655.179 864.985C652.443 856.565 655.44 847.341 662.603 842.137L908.867 663.215Z" stroke="#FF721C" stroke-width="0.789346"/>
<defs>
<radialGradient id="paint0_radial" cx="0" cy="0" r="1" gradientUnits="userSpaceOnUse" gradientTransform="translate(920.882 918.726) rotate(90) scale(202.338 202.658)">
<stop stop-color="#FF721C"/>
<stop offset="1" stop-color="#FF721C" stop-opacity="0"/>
</radialGradient>
<radialGradient id="paint1_radial" cx="0" cy="0" r="1" gradientUnits="userSpaceOnUse" gradientTransform="translate(920.881 896.039) rotate(88.7908) scale(411.413 523.85)">
<stop stop-color="#FF721C"/>
<stop offset="1" stop-color="#FF721C" stop-opacity="0"/>
</radialGradient>
<radialGradient id="paint2_radial" cx="0" cy="0" r="1" gradientUnits="userSpaceOnUse" gradientTransform="translate(936.876 980.829) rotate(88.9491) scale(383.228 708.228)">
<stop stop-color="#FF721C"/>
<stop offset="1" stop-color="#FF721C" stop-opacity="0"/>
</radialGradient>
<clipPath id="clip0">
<rect width="76.3792" height="69.4356" fill="white" transform="translate(882.691 906.509)"/>
</clipPath>
</defs>
</svg>
